<?xml version="1.0" encoding="UTF-8" standalone="no"?>
<!-- Created with Inkscape (http://www.inkscape.org/) -->

<svg
   width="606.19043"
   height="324.35358"
   viewBox="0 0 606.19043 324.35358"
   version="1.1"
   id="svg1"
   xml:space="preserve"
   inkscape:export-filename="iris.png"
   inkscape:export-xdpi="96"
   inkscape:export-ydpi="96"
   inkscape:version="1.4.3 (0d15f75042, 2025-12-25)"
   sodipodi:docname="iris.svg"
   xmlns:inkscape="http://www.inkscape.org/namespaces/inkscape"
   xmlns:sodipodi="http://sodipodi.sourceforge.net/DTD/sodipodi-0.dtd"
   xmlns="http://www.w3.org/2000/svg"
   xmlns:svg="http://www.w3.org/2000/svg"><sodipodi:namedview
     id="namedview1"
     pagecolor="#ffffff"
     bordercolor="#000000"
     borderopacity="0.25"
     inkscape:showpageshadow="2"
     inkscape:pageopacity="0.0"
     inkscape:pagecheckerboard="0"
     inkscape:deskcolor="#d1d1d1"
     inkscape:document-units="px"
     inkscape:zoom="0.79785156"
     inkscape:cx="130.35006"
     inkscape:cy="224.97919"
     inkscape:window-width="1920"
     inkscape:window-height="1020"
     inkscape:window-x="0"
     inkscape:window-y="0"
     inkscape:window-maximized="1"
     inkscape:current-layer="layer2"><inkscape:page
       x="0"
       y="0"
       width="606.19043"
       height="324.35358"
       id="page2"
       margin="0"
       bleed="0" /></sodipodi:namedview><defs
     id="defs1" /><g
     inkscape:groupmode="layer"
     id="layer2"
     inkscape:label="Camada 2"
     style="display:inline"
     transform="translate(53.524391,422.21631)"><g
       id="g1"
       transform="translate(348.43574,-92.749082)"><path
         d="m 20.834291,-185.42594 c 61.964724,11.68783 137.547189,28.46809 155.101729,93.931317 0.91169,2.493966 1.72747,5.015775 2.44586,7.560881 -8.37701,12.847936 -33.7837,44.798242 -83.806766,53.762901 -2.486077,0.445749 -4.986493,0.823357 -7.49783,1.13229 -5.607791,0.689339 -11.260675,1.035162 -16.920029,1.035095 -70.36869529,1.61e-4 -109.502579,-47.580132 -120.025101,-84.870374 4.533144,-6.95732 8.187748,-14.08988 14.245027,-20.02305 6.948307,-8.14549 27.3415953,-28.07048 60.586867,-28.06957 18.460588,1.5e-4 36.353157,6.45688 50.644502,18.27563 23.182542,19.171 29.89288,47.897604 29.8928,56.1641 -4.8e-4,19.048447 -15.33939,40.058681 -41.090941,41.021322 -0.554069,0.02045 -1.108496,0.03047 -1.662976,0.0302 -10.936897,8.1e-5 -21.457967,-4.024356 -29.398897,-11.245428 -15.930722,-11.241903 -15.820707,-30.850069 -5.946545,-42.204846 7.999825,-9.438278 20.562769,-11.639318 27.993386,-10.198518 8.818831,1.20549 9.972421,4.75853 13.855482,4.5712 -7.112227,-7.26192 -16.753493,-11.34104 -26.80592,-11.34132 -20.749717,-3.2e-4 -37.9335242,17.257496 -37.9331274,38.776443 1.816e-4,1.816821 0.1252817,3.631388 0.3743656,5.430279 2.8740617,10.332818 8.6921368,19.691326 16.8004968,27.023973 11.110926,10.047732 25.797876,15.64314 41.060726,15.643248 10.422717,-3.03e-4 20.664909,-2.612354 29.714153,-7.577958 12.477267,-6.845704 21.975007,-17.771 26.759947,-30.782081 12.68366,-38.925574 -6.76249,-81.630434 -48.751653,-101.369124 -58.134444,-27.32719 -127.342824,2.364 -143.11816,55.25905 1.709163,18.684921 9.158641,35.185846 19.011227,48.557244 23.04309,31.27304 65.426524,55.5031178 111.326535,59.5647735 57.093281,1.6379706 75.997011,-4.0043482 116.675511,-35.2861505 2.61005,-2.007165 5.12206,-4.090649 7.53067,-6.246002 8.9773,-8.033009 16.46149,-17.013607 22.23209,-26.677196 0.0681,-1.530484 0.10225,-3.061937 0.10245,-4.593531 1.4e-4,-0.09896 1.4e-4,-0.19791 0,-0.296868 -0.15673,-54.78018 -40.03786,-115.21778 -161.084116,-132.09934 -47.5805608,-6.63576 -93.721646,-34.61748 -46.9008193,-74.16046 41.3102603,-36.0464 136.3623653,-36.7389 195.2617753,41.6977 -8.33712,-31.22506 -31.72698,-57.99455 -64.40934,-73.71595 -176.644523,-59.29028 -237.67273,106.53364 -106.263379,131.32012 z"
         style="fill:#562ace;fill-opacity:1;stroke:none;stroke-width:1.09829"
         id="path197"
         sodipodi:nodetypes="scccccccccsccccccsccccccccccsccccscccs" /><path
         style="font-size:474.694px;font-family:'URW Gothic';-inkscape-font-specification:'URW Gothic, Normal';fill:#562ace;stroke-width:23.5942;stroke-linecap:round;stroke-linejoin:round;paint-order:markers fill stroke"
         d="m -401.96013,-19.376333 h 24.63763 V -265.4198 h -24.63763 z m 169.46695,-91.891737 c 47.27764,-4.99412 72.58116,-30.96352 72.58116,-75.24469 0,-30.63058 -12.9847,-53.93645 -36.95646,-66.92116 -15.31529,-8.32353 -36.29058,-11.98588 -68.9188,-11.98588 h -60.92822 v 246.043467 h 24.63763 V -243.11274 h 34.62587 c 25.96941,0 43.28235,2.66353 56.6,8.9894 16.64705,7.99059 25.9694,24.63764 25.9694,46.9447 0,27.96705 -12.65176,45.61293 -37.2894,51.93881 -11.65295,2.99647 -27.63412,4.32823 -54.93528,4.32823 l 82.90233,111.535267 h 30.63058 z m 112.5342,91.891737 h 24.637638 V -265.4198 h -24.637638 z"
         id="text1"
         aria-label="IRI" /></g></g></svg>
